<svg width="58" height="56" viewBox="0 0 58 56" fill="none" xmlns="http://www.w3.org/2000/svg">
<path fill-rule="evenodd" clip-rule="evenodd" d="M29.0035 0C34.7803 0 39.4632 4.70693 39.4632 10.5132C39.4632 16.3195 34.7803 21.0264 29.0035 21.0264C23.2268 21.0264 18.5438 16.3195 18.5438 10.5132C18.5438 4.70693 23.2268 0 29.0035 0ZM11.5294 53.9913C6.85593 50.5786 5.81991 44.0039 9.2154 39.3065C12.6109 34.6091 19.152 33.5678 23.8255 36.9808C28.499 40.3935 29.535 46.9682 26.1396 51.6656C22.7441 56.363 16.2029 57.4043 11.5294 53.9913ZM48.8255 39.3065C52.2211 44.0039 51.1851 50.5786 46.5116 53.9913C41.8381 57.4043 35.2969 56.363 31.9016 51.6656C28.506 46.9682 29.542 40.3935 34.2155 36.9808C38.889 33.5678 45.4302 34.6091 48.8255 39.3065ZM0.714756 20.6069C2.49986 15.0849 8.40073 12.0629 13.8947 13.8571C19.3887 15.6513 22.3954 21.5825 20.6103 27.1045C18.8252 32.6265 12.9243 35.6486 7.43029 33.8543C1.93629 32.0601 -1.07035 26.1292 0.714756 20.6069ZM44.1053 13.8571C49.5994 12.0629 55.5001 15.0849 57.2852 20.6069C59.0704 26.1292 56.0637 32.0601 50.5698 33.8543C45.0756 35.6486 39.1749 32.6265 37.3898 27.1045C35.6047 21.5825 38.6113 15.6513 44.1053 13.8571Z" fill="white"/>
</svg>
